<?xml version="1.0" encoding="utf-8"?>
<!-- Generator: Adobe Illustrator 22.1.0, SVG Export Plug-In . SVG Version: 6.00 Build 0)  -->
<svg version="1.1" id="图层_1" xmlns="http://www.w3.org/2000/svg" xmlns:xlink="http://www.w3.org/1999/xlink" x="0px" y="0px"
	 viewBox="0 0 141.7 141.7" style="enable-background:new 0 0 141.7 141.7;" xml:space="preserve">
<style type="text/css">
	.st0{fill:url(#SVGID_1_);}
	.st1{fill:url(#SVGID_2_);}
	.st2{fill:url(#SVGID_3_);}
	.st3{fill:url(#SVGID_4_);}
	.st4{fill:url(#SVGID_5_);}
	.st5{fill:url(#SVGID_6_);}
</style>
<g>
	<linearGradient id="SVGID_1_" gradientUnits="userSpaceOnUse" x1="78.1534" y1="60.3675" x2="100.4751" y2="60.3675">
		<stop  offset="0" style="stop-color:#1972A8"/>
		<stop  offset="1" style="stop-color:#6EB885"/>
	</linearGradient>
	<polygon class="st0" points="100.5,49.8 98.9,49.8 78.2,70.1 78.9,70.9 	"/>
	<linearGradient id="SVGID_2_" gradientUnits="userSpaceOnUse" x1="76.487" y1="59.5527" x2="97.1822" y2="59.5527">
		<stop  offset="0" style="stop-color:#1972A8"/>
		<stop  offset="1" style="stop-color:#6EB885"/>
	</linearGradient>
	<polygon class="st1" points="76.5,68.5 77.3,69.3 97.2,49.8 95.5,49.8 	"/>
	<linearGradient id="SVGID_3_" gradientUnits="userSpaceOnUse" x1="47.1011" y1="86.9582" x2="89.0654" y2="44.4069">
		<stop  offset="0" style="stop-color:#1E73AB"/>
		<stop  offset="1" style="stop-color:#8E4295"/>
	</linearGradient>
	<polygon class="st2" points="75.7,67.6 93.8,49.8 73.6,49.8 81.8,53.8 72,63.9 	"/>
	<linearGradient id="SVGID_4_" gradientUnits="userSpaceOnUse" x1="79.7831" y1="61.2018" x2="103.8536" y2="61.2018">
		<stop  offset="0" style="stop-color:#1972A8"/>
		<stop  offset="1" style="stop-color:#6EB885"/>
	</linearGradient>
	<polygon class="st3" points="79.8,71.8 80.6,72.6 103.9,49.8 102.2,49.8 	"/>
	<linearGradient id="SVGID_5_" gradientUnits="userSpaceOnUse" x1="31.8006" y1="70.8661" x2="102.7955" y2="70.8661">
		<stop  offset="0" style="stop-color:#1972A8"/>
		<stop  offset="1" style="stop-color:#6EB885"/>
	</linearGradient>
	<path class="st4" d="M85.5,101.3c-3.9,1.6-8.2,2.5-12.7,2.5c-18.2,0-33-14.8-33-33s14.8-33,33-33c9.3,0,17.8,3.9,23.8,10.2h6.2
		C95.7,38.2,84.1,31.7,71,31.7c-21.6,0-39.2,17.6-39.2,39.2S49.4,110,71,110c6.7,0,13-1.7,18.5-4.7L85.5,101.3z"/>
	<linearGradient id="SVGID_6_" gradientUnits="userSpaceOnUse" x1="59.1158" y1="98.8072" x2="101.0802" y2="56.2559">
		<stop  offset="0" style="stop-color:#6A4D9D"/>
		<stop  offset="1" style="stop-color:#E03B5E"/>
	</linearGradient>
	<path class="st5" d="M78.9,74.3l-8.6-8.6l-9.5,9.7l-0.9-28.5h-7.4c-1.3,1.2-2.6,2.5-3.7,3.9h4.9v43.1h6.2l10.3-10.3l22.6,22.6h17.1
		L78.9,74.3z"/>
</g>
</svg>
